<svg width="24" height="24" viewBox="0 0 24 24" fill="none" xmlns="http://www.w3.org/2000/svg">
<path d="M13.5374 11.9999C13.5374 15.7278 10.507 18.75 6.76859 18.75C3.03022 18.75 0 15.7287 0 11.9999C0 8.27107 3.03045 5.25 6.76859 5.25C10.5067 5.25 13.5374 8.27198 13.5374 11.9999ZM20.9629 11.9999C20.9629 15.5093 19.4475 18.3539 17.5785 18.3539C15.7094 18.3539 14.1941 15.5083 14.1941 11.9999C14.1941 8.49143 15.7094 5.64587 17.5785 5.64587C19.4475 5.64587 20.9629 8.49143 20.9629 11.9999ZM24 11.9999C24 15.1441 23.467 17.6928 22.8097 17.6928C22.1523 17.6928 21.6193 15.1432 21.6193 11.9999C21.6193 8.85657 22.1523 6.30695 22.8099 6.30695C23.4675 6.30695 24 8.85589 24 11.9999Z" fill="black"/>
</svg>
